<?xml version="1.0" encoding="UTF-8"?><svg id="a" xmlns="http://www.w3.org/2000/svg" viewBox="0 0 508 509.26"><defs><style>.b{fill:#a47cbd;}.c{fill:#9c9c9c;}.d{fill:#363636;}.e{fill:#6b6b6b;}.f{fill:#a178ba;}.g{fill:#676767;}.h{fill:#fdfdfd;}.i{fill:none;}.j{fill:#3a393b;}.k{fill:#fefefe;}</style></defs><g><path class="h" d="M1,307.26V1.26c169,0,338,0,507,0,0,100.67,0,201.33,0,302-.29,.24-.6,.28-.94,.12-11.73-59.49-34.71-115.06-57.64-172.48-8.34,8.79-7.06,17-5.74,24.61,5.59,32.08,16.65,63.04,19.07,95.79,2.11,28.54-20.88,80.31-41.21,90-5.14-27.39,1.18-55.17-4.74-82.1,4.29,.94,8.58,1.88,17.84,3.92-9.31-3.99-13.94-5.97-18.57-7.96v.02l-1.01-.97c-1.35-.64-2.7-1.27-4.05-1.91-4.89-2.6-9.78-5.19-15.12-8.02-1.25,3.25-2.16,5.6-2.97,7.7,4.91,1.93,9.15,3.6,13.39,5.27-2.11,7.33-4.23,14.66-6.34,21.99-4.7-3-9.4-5.99-14.37-9.16l-3.9,7.84c6.05,2.27,11.6,4.36,17.15,6.44-3.01,10.91-6.02,21.81-9.04,32.72-6.73-7.28-13.47-14.56-20.56-22.23-2.75,3.46-4.25,5.36-6.25,7.88,8.95,5.71,17.44,11.13,25.94,16.56-4.99,17.39-15.42,31.95-24.96,46.87-29.41,45.96-31.4,93.1-7.16,142.44,6.13-22.01,20.67-37.15,36.97-50.98,24.36-20.69,48.7-41.4,73.13-62.01,20.62-17.4,39.04-36.08,40.2-65.4,.29,.05,.57,.08,.86,.07v179H153c22.17-47.43,22.51-93.87-5.4-139.5-9.59-15.68-20.41-30.78-26.46-48.43,7.36-5.88,14.72-11.76,22.64-18.09-2.41-2.18-4.33-3.92-6.5-5.88-5.75,6.96-11.46,13.86-17.16,20.75-2.73-10.27-5.46-20.54-8.2-30.81,3.64-2.2,7.28-4.4,11.33-6.85-2.04-2.5-3.67-4.49-5.46-6.68-2.82,2.38-5.32,4.47-7.81,6.57-2.3-7.67-4.6-15.35-6.9-23.02l7.6-2.5c-1.59-3.06-2.76-5.32-4-7.7-3.56,2.14-6.62,3.99-9.69,5.83-1.31,1.09-2.61,2.19-3.92,3.28-5.39,3.3-10.77,6.6-20.98,12.86,10.03-3.42,14.65-5,19.27-6.57v78.64l-6.62,.74c-17.8-22.72-35.97-45.72-37.56-76.31-2.07-39.95,14.07-77.3,18.86-116.35,11.32,2.79,22.64,5.57,34.39,8.47,.4-3.29,.68-5.66,1.01-8.39-12.11-.66-23.68-1.3-35.26-1.94,1.23-6.03,.36-11.21-6.88-14.95-4.01,9.63-8.36,18.91-11.8,28.51C30.33,208.97,8.38,255.51,1.63,306.82l-.48-.02-.15,.46ZM388,63.28c-.33,.34-.65,.68-.98,1.01l-1.03,.95-1.19,.8c-8.85,6.98-17.69,13.96-27.23,21.48,2.43,2.37,4.26,4.15,6.55,6.38,7.42-9.46,14.38-18.34,21.33-27.22,.19-.47,.38-.94,.57-1.42,.31-.35,.62-.7,.94-1.05,.33-.33,.67-.66,1-.98l.2-.13-.16,.16Zm20.02,26.99l-1.39,.61c-.24,.3-.48,.61-1.52,1.92,1.42-.91,1.76-1.13,2.1-1.35,.26-.4,.52-.81,.77-1.21,.33-.34,.66-.68,.99-1.02,.29-.1,.58-.19,.21-.07,.31-.27,.08-.07-.14,.13-.34,.33-.68,.66-1.02,.99Zm-41.02,257.96l.25,.23-.3-.18-.98-2.01c-6.47-10.31-12.93-20.62-19.63-31.29-2.66,2.34-4.59,4.04-7.2,6.34,9.29,8.59,18.1,16.75,26.9,24.9,.32,.68,.63,1.35,.95,2.03Zm-4-307.96c-.31,.68-.63,1.35-.94,2.03-8.76,8.33-17.52,16.66-26.63,25.32,2.85,2.09,4.91,3.6,7.47,5.48,6.59-10.65,12.84-20.76,19.09-30.86,.32-.67,.65-1.35,.97-2.02l.26-.22-.22,.27Zm-202.94-13.07c.3,.7,.6,1.4,.9,2.09,3.33,11.35,6.66,22.7,10.14,34.57,3.3-1.59,5.61-2.7,8.47-4.08-6.37-10.48-12.46-20.51-18.54-30.54-.34-.66-.68-1.33-1.02-1.99-.12-.28-.23-.56-.06-.15-.35-.29-.11-.1,.12,.1Zm-56.81,48.8l-2.04-1.11,1.61,1.53c7.73,8.71,15.45,17.43,23.42,26.41,2.3-2.58,4.01-4.49,6.1-6.84-10.05-6.91-19.57-13.46-29.1-20Zm227.78,291.22c.09,.43,.18,.87,.01,.07,1.04,.07,.48,.03-.08,0-2.85-11.66-5.69-23.31-8.65-35.41-3.34,1.4-5.72,2.4-8.66,3.63,5.97,10.89,11.67,21.3,17.38,31.72Zm0-344.91c-6.85,10.29-13.69,20.57-20.76,31.19,3.19,1.56,5.5,2.69,8.33,4.08,4.27-12.2,8.32-23.77,12.36-35.33,.24-.27,.48-.54,.13-.14,.16-.51,.05-.16-.06,.2ZM75.89,230.1c9.08-1.97,18.16-3.94,27.63-5.99-1.16-3.23-1.97-5.51-2.9-8.08-8.14,3.52-15.85,6.86-23.57,10.2v-19.1c-9.76,19.16-21.49,30.72-26.48,48.58,12.21-7.14,20.18-14.99,25.31-25.62Zm356.72-2.71c-9.63-3.47-19.25-6.94-29.4-10.59l-2.42,8.28c11.21,1.71,21.83,3.33,32.45,4.94,5.66,10.47,13.15,19.07,25.56,25.04-5.34-17.13-16.69-29.02-24.61-43.94-3.41,5.99-3.09,11.08-1.58,16.28ZM75.99,185.34c-1.08-5.72-2.94-11-8.28-14.69-1.57,5.82-3.04,11.29-4.52,16.76l-4.24,.3,4.12,.5c-3.41,15.62-6.81,31.24-11.05,50.67,12.64-17.04,20.52-31.88,23.83-48.94,7.54,.59,15.08,1.17,22.83,1.78v-8.25c-7.87,.65-15.28,1.26-22.69,1.87Zm358.2,9.71c4.5,14.87,11.42,28.41,23.53,44.25-5.98-25.61-10.95-46.9-16.05-68.76-7.65,5.95-9.01,13.37-7.8,21.7-9.83-.83-19.67-1.65-29.64-2.49v8.52c10.26-1.1,20.11-2.16,29.97-3.22Zm-182,167.2c-1.8-8.02-3.6-16.03-5.4-24.05,64.18-.75,112.26-28.86,137.5-88.1,24.31-57.07,13.58-110.69-28.69-156.33-40.97-44.24-108.93-56.45-163.27-31.16-56.94,26.5-90.06,84.44-83.51,146.07,7.3,68.69,66.73,127.7,129.35,128.44,6.91,41.24,25.95,81.67,8.01,124.77,5.33,1.71,10.45,3.35,15,4.81,12.87-30.38,6.85-59.46-3.88-88.3,1.11-10.17,2.21-20.34,3.34-30.66h-8.44v14.5Zm185.37-116.34c1.25,13.99,7.87,22.31,18.59,28.48,5.18-17.03-8.9-20.2-18.59-28.48Zm-366.38,.76c-19.8,13.2-22.58,17.79-16.62,27.14,9.23-6.54,16.49-14.17,16.62-27.14ZM229.88,43.82c-4.13-12.65-8.1-24.83-13.21-40.46,1.81,16.32,3.21,28.98,4.67,42.14l8.53-1.68ZM187.09,10.66c3.34,16.77,5.77,28.95,8.3,41.69,2.83-.95,5.25-1.75,8.31-2.78-5.03-11.77-9.84-23.03-16.62-38.91Zm23.44,373.78c5.13-15.83,9.06-27.98,13.13-40.53-3.44-.66-5.79-1.12-8.53-1.65-1.43,13.13-2.81,25.74-4.6,42.18ZM260.57,41.64c-1.32-12.85-2.61-25.32-4.28-41.64-1.72,16.36-3.04,28.91-4.38,41.64h8.67Zm36.36,339.64c-1.85-17.6-3.06-29.17-4.33-41.25-3.11,.62-5.64,1.11-8.69,1.72,3.81,11.58,7.47,22.68,13.02,39.54Zm-113.63-49.12c-3.46,12.79-6.75,24.95-11.01,40.7,7.45-14.57,13.2-25.83,19.16-37.5-2.96-1.16-5.23-2.05-8.15-3.2Zm217.5-173.07c.9,3.43,1.51,5.75,2.24,8.5,12.06-3.96,23.55-7.74,39.59-13.01-16.93,1.82-29.05,3.13-41.83,4.51ZM293.47,5.99c-4.37,16.31-7.53,28.13-10.86,40.56l8.72,.98c.65-12.68,1.28-24.79,2.14-41.54ZM113.2,121.49c-12.33-4.11-24.27-8.08-40.08-13.34,14.39,8.41,25.24,14.75,36.38,21.26,1.29-2.75,2.39-5.11,3.7-7.92Zm9.8-73.2c10.92,13.45,18.61,22.93,26.4,32.53,2.41-2.02,4.36-3.66,6.72-5.63-10.3-8.37-19.7-16.01-33.11-26.9ZM431.16,118.32c-16.93,5.25-28.09,8.7-39.73,12.31,1.27,2.97,2.27,5.31,3.45,8.09,10.71-6.02,20.88-11.74,36.28-20.4ZM158.46,315.64c-6.07,10.77-11.78,20.9-20.52,36.42,11.85-13.41,19.59-22.16,27.6-31.22-2.45-1.8-4.42-3.25-7.07-5.2ZM409.44,88.66c-13.97,9.07-22.86,14.84-32.09,20.83,2.16,2.45,3.76,4.27,4.9,5.57,7.86-7.63,15.39-14.94,27.19-26.4Zm20.01,31.03c-1.5,0-1.74,0,0,0-1.73,.17-1.49,.15,0,0Zm-132.83,258.69l-.13-.43-.13,.43h.26Zm-221.34-110.67l.32,.19,.04-.28-.36,.1Zm65.17,81.17l.18-.27-.25-.05,.07,.32Z"/><path class="d" d="M121.13,321.34c6.06,17.65,16.87,32.75,26.46,48.43,27.92,45.63,27.57,92.07,5.4,139.5h-1c-7.25-28.99-30.17-45.5-50.4-64.51C64.65,410.03,12.47,388.6,1,331.26v-21l.63-3.44c6.74-51.31,28.69-97.85,45.89-145.87,3.44-9.6,7.78-18.88,11.8-28.51,7.24,3.74,8.11,8.92,6.88,14.95-.05,.62-.1,1.24-.15,1.86-4.79,39.05-20.93,76.4-18.86,116.35,1.59,30.59,19.76,53.59,37.56,76.31l6.62-.74c0-26.21,0-52.43,0-78.64,.57-2.09,1.14-4.19,1.71-6.28,1.31-1.09,2.61-2.19,3.92-3.28,2.03,1.46,4.06,2.91,6.09,4.37,2.3,7.67,4.6,15.35,6.9,23.02,.65,2.32,1.29,4.63,1.94,6.95,2.73,10.27,5.46,20.54,8.2,30.81,.34,1.07,.68,2.14,1.02,3.21Z"/><path class="k" d="M1,331.26c11.47,57.34,63.65,78.77,100.6,113.49,20.23,19.01,43.15,35.52,50.4,64.51H1v-178Z"/><path class="g" d="M508,310.26v12c-.29,.01-.58,.05-.87,.11-.01-4.07-.02-8.13-.03-12.2,.3,.05,.6,.08,.9,.09Z"/><path class="c" d="M507.13,322.37c.29-.06,.58-.1,.87-.11v5c-.32,.01-.64,.05-.95,.13,.03-1.67,.06-3.35,.08-5.02Z"/><path class="c" d="M508,310.26c-.3,0-.6-.04-.9-.09-.02-1.35-.05-2.69-.07-4.04,.32,.04,.65,.08,.97,.13v4Z"/><path class="e" d="M1.63,306.82l-.63,3.44v-3l.15-.46,.48,.02Z"/><path class="b" d="M508,306.26c-.32-.05-.65-.09-.97-.13,0-.91,.02-1.83,.03-2.75,.34,.16,.66,.11,.94-.13v3Z"/><path class="b" d="M507.05,327.39c.31-.07,.63-.12,.95-.13v3c-.29,0-.58-.02-.86-.07-.03-.93-.06-1.87-.09-2.8Z"/><path class="f" d="M238.17,337.14c-62.62-.74-122.05-59.75-129.35-128.44-6.55-61.64,26.57-119.57,83.51-146.07,54.34-25.29,122.3-13.08,163.27,31.16,42.27,45.63,53,99.25,28.69,156.33-25.24,59.25-73.32,87.35-137.5,88.1-8.2-43.16-2.99-85.74,5.72-128.19-17.06,41.03-20.24,83.57-14.35,127.12Zm80.86-124.85c-18.81,5.37-38.19,9.03-55.71,18.32-16.76,8.89-16.95,25.02-15.94,40.44,.59,8.9,31.08,9.14,39.42-.74,14.45-17.12,22.78-37.98,32.16-58.09,.16-.1,.32-.19,.27-.16,.04-.05-.08,.09-.2,.23Zm-44.43-99.65c-11.91,17.84-23.59,34.19-33.97,51.34-6.55,10.83-4.91,21.84,3.9,31.69,10.6,11.85,20.85,3.22,30.79-.41,11.12-4.06,19.86-11.46,18.52-24.72-2.03-20.09-11.02-38.03-19.24-57.9Zm-101.53,68.42c9.04,19.71,16.64,37.32,25.16,54.49,5.45,10.99,16.04,12.74,27.04,11.46,11.06-1.28,15.22-9.4,17.45-19.13,2.44-10.65,.99-20.15-8.87-26.33-17.81-11.18-38.86-12.65-60.78-20.48Z"/><path class="d" d="M507.05,327.39c.03,.93,.06,1.87,.09,2.8-1.16,29.32-19.58,48.01-40.2,65.4-24.43,20.61-48.77,41.33-73.13,62.01-16.3,13.84-30.83,28.98-36.97,50.98-24.25-49.34-22.26-96.48,7.16-142.44,9.54-14.91,19.96-29.48,24.96-46.87,.29-.73,.58-1.47,.87-2.2,3.01-10.91,6.02-21.81,9.04-32.72,.37-1.71,.75-3.41,1.12-5.12,2.11-7.33,4.23-14.66,6.34-21.99,1.56-1.65,3.13-3.29,4.69-4.94,1.35,.64,2.7,1.27,4.05,1.91,.34,.32,.68,.65,1.02,.97v-.02c.24,1.35,.48,2.69,.73,4.04,5.92,26.93-.39,54.71,4.74,82.1,20.33-9.69,43.32-61.47,41.21-90-2.42-32.75-13.49-63.72-19.07-95.79-1.33-7.61-2.6-15.82,5.74-24.61,22.93,57.42,45.91,112.99,57.64,172.48,0,.92-.02,1.83-.03,2.75,.02,1.35,.05,2.69,.07,4.04,.01,4.07,.02,8.13,.03,12.2-.03,1.67-.06,3.35-.08,5.02Z"/><path class="j" d="M238.17,337.14c-5.88-43.55-2.7-86.09,14.35-127.12-8.72,42.45-13.92,85.03-5.72,128.19,1.8,8.02,3.6,16.03,5.4,24.04,1.7,5.39,3.4,10.77,5.1,16.16,10.73,28.84,16.75,57.92,3.88,88.3-4.55-1.46-9.67-3.1-15-4.81,17.93-43.1-1.11-83.53-8.01-124.77Z"/><path class="j" d="M433.86,192.24c-1.2-8.33,.16-15.75,7.8-21.7,5.1,21.86,10.07,43.15,16.05,68.76-12.11-15.84-19.03-29.38-23.53-44.25-.11-.94-.22-1.87-.33-2.81Z"/><path class="j" d="M75.84,189.95c-3.31,17.06-11.19,31.9-23.83,48.94,4.24-19.44,7.64-35.06,11.05-50.68,.25-.23,.29-.5,.12-.8,1.47-5.47,2.95-10.94,4.52-16.76,5.34,3.7,7.21,8.97,8.28,14.69-.05,1.54-.1,3.07-.14,4.61Z"/><path class="j" d="M432.61,227.39c-1.51-5.19-1.83-10.28,1.58-16.28,7.91,14.92,19.26,26.81,24.61,43.94-12.41-5.97-19.9-14.57-25.56-25.04-.21-.88-.42-1.75-.63-2.63Z"/><path class="j" d="M75.89,230.1c-5.12,10.63-13.1,18.48-25.31,25.62,4.99-17.86,16.72-29.43,26.48-48.58,0,9.98,0,14.54,0,19.09-.39,1.29-.78,2.58-1.17,3.87Z"/><path class="j" d="M437.57,245.92c9.69,8.28,23.77,11.45,18.59,28.48-10.73-6.18-17.34-14.49-18.59-28.48Z"/><path class="j" d="M71.19,246.68c-.13,12.97-7.39,20.6-16.62,27.14-5.96-9.35-3.18-13.94,16.62-27.14Z"/><path class="b" d="M366.05,346.21c-8.81-8.15-17.62-16.3-26.9-24.9,2.61-2.29,4.54-3.99,7.2-6.34,6.7,10.68,13.16,20.98,19.63,31.29l.07-.06Z"/><path class="b" d="M229.88,43.82l-8.53,1.68c-1.46-13.16-2.86-25.82-4.67-42.14,5.1,15.64,9.08,27.82,13.21,40.46Z"/><path class="b" d="M187.09,10.66c6.78,15.88,11.59,27.14,16.62,38.91-3.07,1.03-5.48,1.83-8.31,2.78-2.54-12.75-4.96-24.92-8.3-41.69Z"/><path class="b" d="M210.53,384.44c1.79-16.43,3.17-29.04,4.6-42.18,2.74,.53,5.09,.98,8.53,1.65-4.07,12.55-8,24.7-13.13,40.53Z"/><path class="b" d="M260.57,41.64h-8.67c1.34-12.73,2.66-25.28,4.38-41.64,1.68,16.32,2.96,28.78,4.28,41.64Z"/><path class="b" d="M296.93,381.28c-5.55-16.86-9.2-27.95-13.02-39.54,3.05-.6,5.58-1.1,8.69-1.72,1.27,12.08,2.48,23.66,4.33,41.25Z"/><path class="b" d="M183.3,332.16c2.93,1.15,5.2,2.04,8.15,3.2-5.96,11.67-11.72,22.93-19.16,37.5,4.26-15.75,7.55-27.91,11.01-40.7Z"/><path class="b" d="M400.8,159.09c12.77-1.38,24.9-2.68,41.83-4.51-16.04,5.27-27.53,9.04-39.59,13.01-.72-2.75-1.34-5.07-2.24-8.5Z"/><path class="b" d="M293.47,5.99c-.86,16.75-1.49,28.86-2.14,41.54l-8.72-.98c3.33-12.42,6.49-24.25,10.86-40.56Z"/><path class="b" d="M113.2,121.49c-1.31,2.8-2.41,5.16-3.7,7.92-11.14-6.51-21.99-12.85-36.38-21.26,15.81,5.26,27.75,9.24,40.08,13.34Z"/><path class="b" d="M66.06,149.25c.05-.62,.1-1.24,.15-1.86,11.57,.64,23.15,1.27,35.26,1.94-.33,2.73-.61,5.1-1.01,8.39-11.75-2.89-23.07-5.68-34.39-8.47Z"/><path class="b" d="M330.98,22.25c-4.05,11.56-8.09,23.13-12.36,35.33-2.84-1.39-5.14-2.52-8.33-4.08,7.06-10.62,13.91-20.9,20.76-31.19l-.06-.06Z"/><path class="b" d="M123,48.29c13.41,10.89,22.81,18.54,33.11,26.9-2.35,1.97-4.31,3.61-6.72,5.63-7.79-9.6-15.48-19.08-26.4-32.53Z"/><path class="b" d="M431.16,118.32c-15.4,8.66-25.57,14.38-36.28,20.4-1.18-2.77-2.18-5.11-3.45-8.09,11.65-3.61,22.8-7.07,39.73-12.31Z"/><path class="b" d="M161.02,29.24c6.09,10.03,12.18,20.06,18.54,30.54-2.85,1.37-5.17,2.49-8.47,4.08-3.48-11.87-6.81-23.22-10.14-34.57l.06-.05Z"/><path class="b" d="M331.03,367.23c-5.71-10.41-11.41-20.83-17.38-31.72,2.94-1.23,5.32-2.23,8.66-3.63,2.95,12.1,5.8,23.75,8.65,35.41l.07-.06Z"/><path class="b" d="M103.25,76c9.52,6.54,19.04,13.09,29.09,20-2.1,2.35-3.8,4.26-6.1,6.84-7.97-8.99-15.69-17.7-23.42-26.41,.15-.14,.29-.28,.43-.43Z"/><path class="b" d="M432.61,227.39c.21,.88,.42,1.75,.63,2.63-10.62-1.62-21.24-3.24-32.45-4.94l2.42-8.28c10.14,3.66,19.77,7.12,29.4,10.59Z"/><path class="b" d="M158.46,315.64c2.65,1.95,4.62,3.4,7.07,5.2-8,9.05-15.74,17.81-27.6,31.22,8.74-15.52,14.46-25.65,20.52-36.42Z"/><path class="b" d="M361.98,42.24c-6.25,10.11-12.5,20.22-19.09,30.86-2.56-1.88-4.62-3.39-7.47-5.48,9.11-8.66,17.87-16.99,26.63-25.32l-.07-.06Z"/><path class="b" d="M385.46,66.7c-6.96,8.88-13.92,17.75-21.34,27.21-2.29-2.23-4.12-4.01-6.55-6.38,9.54-7.52,18.38-14.5,27.23-21.48,.21,.23,.43,.44,.66,.65Z"/><path class="b" d="M433.86,192.24c.11,.94,.22,1.87,.33,2.81-9.86,1.06-19.72,2.12-29.97,3.22v-8.52c9.98,.84,19.81,1.66,29.64,2.49Z"/><path class="b" d="M257.3,378.42c-1.7-5.39-3.4-10.78-5.1-16.16,0-4.7,0-9.41,0-14.5h8.44c-1.12,10.32-2.23,20.49-3.34,30.66Z"/><path class="b" d="M121.13,321.34c-.34-1.07-.68-2.14-1.02-3.21,5.7-6.9,11.41-13.79,17.16-20.75,2.17,1.96,4.09,3.7,6.5,5.88-7.93,6.33-15.28,12.21-22.64,18.09Z"/><path class="b" d="M409.44,88.66c-11.8,11.46-19.33,18.77-27.19,26.4-1.14-1.3-2.74-3.11-4.9-5.57,9.23-5.99,18.12-11.76,32.09-20.83Z"/><path class="b" d="M75.89,230.1c.39-1.29,.78-2.58,1.17-3.87,7.71-3.34,15.42-6.68,23.57-10.2,.92,2.57,1.74,4.85,2.9,8.08-9.47,2.05-18.55,4.02-27.63,5.99Z"/><path class="b" d="M389.83,317.08c-.29,.73-.58,1.47-.87,2.2-8.5-5.42-16.99-10.85-25.94-16.56,2-2.52,3.51-4.42,6.25-7.88,7.1,7.67,13.83,14.95,20.56,22.23Z"/><path class="b" d="M75.84,189.95c.05-1.54,.1-3.07,.14-4.61,7.41-.61,14.81-1.22,22.69-1.87v8.25c-7.75-.6-15.29-1.19-22.83-1.78Z"/><path class="b" d="M399.98,279.25c-.37,1.71-.75,3.41-1.12,5.12-5.55-2.08-11.1-4.17-17.15-6.44l3.9-7.84c4.97,3.17,9.67,6.16,14.37,9.16Z"/><path class="b" d="M411.02,252.32c-1.57,1.65-3.13,3.3-4.69,4.94-4.24-1.67-8.47-3.33-13.39-5.27,.81-2.09,1.71-4.45,2.97-7.7,5.33,2.83,10.22,5.43,15.12,8.02Z"/><path class="b" d="M111.92,287.31c-.65-2.32-1.29-4.64-1.94-6.95,2.49-2.1,4.99-4.2,7.81-6.57,1.79,2.19,3.42,4.18,5.46,6.68-4.06,2.45-7.7,4.65-11.33,6.85Z"/><path class="b" d="M103.09,257.34c-2.03-1.45-4.06-2.91-6.09-4.37,3.07-1.85,6.13-3.69,9.69-5.83,1.24,2.38,2.41,4.63,4,7.7l-7.6,2.5Z"/><path class="b" d="M93.08,256.25c-.57,2.09-1.14,4.19-1.71,6.28-4.62,1.57-9.23,3.15-19.27,6.57,10.21-6.26,15.6-9.56,20.98-12.86Z"/><path class="b" d="M416.81,259.21c-.24-1.35-.49-2.69-.73-4.04,4.63,1.98,9.26,3.97,18.57,7.96-9.26-2.03-13.55-2.98-17.84-3.92Z"/><path class="b" d="M63.19,187.42c.17,.3,.13,.56-.12,.8-.63-.08-1.25-.15-4.12-.5l4.24-.3Z"/><path class="b" d="M160.05,27.2c-.23-.19-.46-.39-.12-.1-.17-.42-.06-.14,.06,.15l.06-.05Z"/><path class="b" d="M331.04,22.31c.11-.36,.23-.71,.06-.2,.35-.4,.11-.13-.13,.14l.06,.06Z"/><path class="b" d="M429.45,119.69c-1.49,.15-1.73,.17,0,0-1.74,0-1.5,0,0,0Z"/><path class="b" d="M409.03,89.28c.23-.2,.45-.4,.14-.13,.37-.13,.08-.03-.21,.07l.06,.06Z"/><path class="b" d="M362.05,42.31l.94-2.03-.05-.05c-.32,.67-.65,1.35-.97,2.02l.07,.06Z"/><path class="b" d="M367,348.24c-.32-.68-.63-1.35-.95-2.03l-.07,.06c.33,.67,.65,1.34,.98,2.01l.04-.05Z"/><path class="b" d="M160,27.25c.34,.66,.68,1.33,1.02,1.99l-.06,.05c-.3-.7-.6-1.39-.9-2.09l-.06,.05Z"/><path class="b" d="M330.96,367.29c.56,.04,1.12,.07,.08,0,.17,.8,.08,.37-.01-.07l-.07,.06Z"/><polygon class="b" points="296.62 378.38 296.36 378.38 296.49 377.95 296.62 378.38"/><path class="b" d="M407.21,91.46c-.34,.22-.68,.43-2.1,1.35,1.04-1.32,1.28-1.62,1.52-1.92,.19,.19,.39,.39,.58,.58Z"/><path class="b" d="M406.63,90.88l1.39-.61-.03-.03c-.26,.4-.52,.81-.77,1.22-.2-.19-.39-.38-.58-.58Z"/><path class="b" d="M408.01,90.27c.34-.33,.68-.66,1.02-.99l-.06-.06c-.33,.34-.66,.68-.99,1.02l.03,.03Z"/><path class="b" d="M102.82,76.43l-1.61-1.53c1.41,.77,1.73,.94,2.04,1.11-.14,.14-.28,.29-.43,.43Z"/><path class="b" d="M386.02,65.28c-.19,.47-.38,.94-.56,1.42-.23-.21-.45-.42-.66-.65,.4-.27,.79-.53,1.19-.8l.03,.03Z"/><path class="b" d="M385.99,65.25c.34-.32,.69-.63,1.03-.95l-.06-.07c-.31,.35-.62,.7-.93,1.05l-.03-.03Z"/><path class="b" d="M387.96,63.24c-.33,.33-.67,.66-1,.98l.06,.07c.33-.34,.65-.68,.98-1.01l-.04-.04Z"/><path class="b" d="M416.08,255.19c-.34-.32-.68-.65-1.02-.97,.34,.32,.68,.65,1.02,.97Z"/><path class="b" d="M362.99,40.27l.22-.27c-.09,.07-.17,.14-.26,.22l.05,.05Z"/><polygon class="b" points="388 63.28 388.16 63.12 387.96 63.24 388 63.28"/><polygon class="b" points="75.28 267.71 75.64 267.61 75.61 267.9 75.28 267.71"/><polygon class="b" points="140.45 348.88 140.38 348.57 140.63 348.61 140.45 348.88"/><polygon class="b" points="366.95 348.28 367.25 348.47 367 348.24 366.95 348.28"/><path class="d" d="M274.6,112.64c8.22,19.87,17.21,37.81,19.24,57.9,1.34,13.26-7.4,20.65-18.52,24.72-9.94,3.63-20.19,12.27-30.79,.41-8.81-9.85-10.45-20.86-3.9-31.69,10.38-17.15,22.07-33.5,33.97-51.34Z"/><path class="d" d="M173.06,181.06c21.91,7.83,42.96,9.3,60.78,20.48,9.86,6.19,11.31,15.68,8.87,26.33-2.23,9.73-6.39,17.85-17.45,19.13-11,1.27-21.59-.47-27.04-11.46-8.51-17.16-16.12-34.78-25.16-54.49Z"/><path class="d" d="M318.96,212.22c-9.38,20.12-17.71,40.97-32.16,58.09-8.33,9.88-38.83,9.64-39.42,.74-1.02-15.41-.82-31.54,15.94-40.44,17.52-9.29,36.9-12.95,55.71-18.32l-.07-.07Z"/><path class="d" d="M319.03,212.29c.12-.14,.24-.28,.2-.23,.06-.03-.1,.06-.27,.16l.07,.07Z"/></g><rect class="i" y=".26" width="507" height="508"/></svg>